<svg xmlns="http://www.w3.org/2000/svg" xmlns:xlink="http://www.w3.org/1999/xlink" width="500" zoomAndPan="magnify" viewBox="0 0 375 374.999991" height="500" preserveAspectRatio="xMidYMid meet" version="1.0"><defs><g/><clipPath id="351b3b28a1"><path d="M 76.011719 52 L 313 52 L 313 285 L 76.011719 285 Z M 76.011719 52 " clip-rule="nonzero"/></clipPath></defs><g clip-path="url(#351b3b28a1)"><path fill="#000000" d="M 306.074219 53.582031 C 305.558594 56.449219 304.597656 59.164062 304.667969 61.851562 C 304.941406 71.566406 305.449219 81.269531 306.074219 90.96875 C 307.46875 112.441406 308.957031 133.914062 307.238281 155.503906 C 305.980469 171.367188 304.949219 187.246094 304.140625 203.148438 C 303.894531 208.765625 304.179688 214.359375 305 219.921875 C 307.390625 236.78125 310.160156 253.589844 312.738281 270.433594 C 313.007812 272.085938 313.007812 273.738281 312.738281 275.390625 C 312.335938 277.640625 310.957031 278.746094 308.386719 278.824219 C 296.042969 279.003906 283.707031 279.539062 271.363281 279.613281 C 266.476562 279.628906 261.628906 279.183594 256.828125 278.273438 C 236.882812 274.539062 216.871094 275.871094 196.851562 276.984375 C 186.75 277.554688 176.640625 278.101562 166.550781 278.773438 C 152.71875 279.699219 138.902344 280.765625 125.074219 281.691406 C 121.707031 282 118.335938 282.054688 114.964844 281.855469 C 104.234375 281.066406 93.632812 281.902344 83.15625 284.355469 C 79.949219 285.058594 78.679688 284.0625 78.128906 280.835938 C 78.0625 280.464844 78.027344 280.09375 78.023438 279.71875 C 78.023438 262.882812 77.886719 246.050781 78.023438 229.214844 C 78.195312 204.308594 78.667969 179.398438 78.738281 154.492188 C 78.738281 144.183594 77.964844 133.878906 77.757812 123.613281 C 77.5625 113.53125 77.757812 103.4375 77.5625 93.347656 C 77.398438 87 76.96875 80.644531 76.496094 74.304688 C 76.023438 68.121094 76.496094 67.355469 81.960938 64.945312 C 85.617188 63.300781 89.445312 62.613281 93.445312 62.882812 C 115.375 64.195312 137.289062 63.175781 159.183594 62.230469 C 170.949219 61.722656 182.683594 60.382812 194.425781 59.808594 C 202.824219 59.402344 211.265625 59.53125 219.683594 59.636719 C 233.4375 59.789062 246.925781 58.992188 260.457031 56.199219 C 270.511719 54.105469 280.992188 54.257812 291.152344 52.703125 C 296.300781 51.921875 301.0625 51.898438 306.074219 53.582031 Z M 298.535156 59.328125 C 295.957031 59.328125 293.9375 59.179688 291.925781 59.328125 C 283.332031 60.03125 274.734375 60.820312 266.136719 61.609375 C 264.453125 61.707031 262.789062 61.941406 261.144531 62.316406 C 242.558594 67.296875 223.578125 65.949219 204.675781 65.992188 C 200.375 65.992188 196.078125 65.992188 191.78125 66.242188 C 178.542969 66.96875 165.277344 67.785156 152.003906 68.507812 C 149.203125 68.664062 146.390625 68.78125 143.582031 68.800781 C 130.28125 68.894531 116.984375 68.921875 103.683594 69.03125 C 98.070312 69.082031 92.433594 69.03125 86.851562 69.496094 C 82.398438 69.882812 81.582031 71.214844 81.746094 75.765625 C 82.054688 84.585938 82.496094 93.414062 82.804688 102.175781 C 83.140625 111.519531 83.347656 120.875 83.664062 130.226562 C 83.972656 139.015625 84.644531 147.800781 84.644531 156.597656 C 84.644531 171.195312 84.101562 185.796875 84.042969 200.398438 C 83.949219 221.941406 84.042969 243.472656 84.152344 265.011719 C 84.152344 268.851562 84.566406 272.683594 84.808594 276.917969 C 88.546875 276.53125 91.503906 276.265625 94.460938 275.921875 C 101.878906 275.0625 109.253906 274.203125 116.8125 274.875 C 122.554688 275.371094 128.40625 274.875 134.183594 274.519531 C 139.609375 274.210938 145 273.394531 150.414062 273.078125 C 169.324219 271.96875 188.195312 270.820312 207.105469 270.019531 C 217.210938 269.476562 227.316406 269.449219 237.425781 269.945312 C 253.492188 270.914062 269.414062 273.6875 285.566406 273.636719 C 292.863281 273.636719 299.894531 272.183594 307.433594 271.917969 C 307.175781 269.203125 307.089844 267.160156 306.78125 265.152344 C 304.597656 251.09375 302.382812 237.042969 300.136719 222.996094 C 298.804688 215.214844 298.449219 207.386719 299.0625 199.515625 C 300.214844 186.089844 300.902344 172.621094 301.933594 159.148438 C 303 145.320312 303.875 131.472656 302.644531 117.636719 C 301.710938 106.816406 302.441406 95.992188 300.539062 85.152344 C 299.097656 76.917969 299.183594 68.414062 298.535156 59.328125 Z M 298.535156 59.328125 " fill-opacity="1" fill-rule="nonzero"/></g><g fill="#d9d9d9" fill-opacity="1"><g transform="translate(110.014198, 182.87256)"><g><path d="M 84.515625 -101.625 C 85.117188 -101.53125 85.566406 -101.195312 85.859375 -100.625 C 86.023438 -100.320312 86.046875 -100.054688 85.921875 -99.828125 C 85.796875 -99.597656 85.628906 -99.351562 85.421875 -99.09375 C 83.546875 -97.382812 81.640625 -95.644531 79.703125 -93.875 C 77.828125 -92.09375 75.945312 -90.335938 74.0625 -88.609375 C 69.1875 -84.035156 64.3125 -79.460938 59.4375 -74.890625 C 49.875 -65.992188 40.328125 -57.078125 30.796875 -48.140625 C 25.921875 -43.660156 21.320312 -38.882812 17 -33.8125 C 15.476562 -32.03125 14.050781 -30.144531 12.71875 -28.15625 C 11.8125 -26.84375 11.082031 -25.425781 10.53125 -23.90625 C 9.5625 -21.363281 10.160156 -19.25 12.328125 -17.5625 C 13.765625 -16.539062 15.265625 -15.648438 16.828125 -14.890625 C 19.160156 -13.734375 21.550781 -12.742188 24 -11.921875 C 26.445312 -11.109375 28.90625 -10.351562 31.375 -9.65625 C 39.71875 -7.21875 48.054688 -4.804688 56.390625 -2.421875 C 57.109375 -2.210938 57.820312 -2.003906 58.53125 -1.796875 C 58.675781 -1.753906 58.851562 -1.707031 59.0625 -1.65625 C 59.613281 -1.5 60.140625 -1.304688 60.640625 -1.078125 C 61.148438 -0.847656 61.613281 -0.5 62.03125 -0.03125 C 62.289062 0.269531 62.367188 0.609375 62.265625 0.984375 C 62.160156 1.367188 61.957031 1.628906 61.65625 1.765625 C 60.59375 2.179688 59.578125 2.160156 58.609375 1.703125 C 57.285156 1.054688 55.910156 0.550781 54.484375 0.1875 C 53.054688 -0.164062 51.613281 -0.492188 50.15625 -0.796875 C 48.882812 -1.046875 47.613281 -1.359375 46.34375 -1.734375 C 44.351562 -2.242188 42.367188 -2.726562 40.390625 -3.1875 C 35.054688 -4.5 29.765625 -5.960938 24.515625 -7.578125 C 20.160156 -8.898438 15.898438 -10.507812 11.734375 -12.40625 C 10.554688 -12.957031 9.816406 -13.113281 9.515625 -12.875 C 9.222656 -12.644531 9.078125 -11.875 9.078125 -10.5625 C 9.023438 -9.800781 9 -9.0625 9 -8.34375 C 9.050781 -8.039062 9.078125 -7.742188 9.078125 -7.453125 C 9.078125 -3.429688 9.078125 0.585938 9.078125 4.609375 C 9.078125 15.066406 9.050781 25.503906 9 35.921875 C 9 38.410156 8.894531 40.90625 8.6875 43.40625 C 8.644531 44.550781 8.585938 45.738281 8.515625 46.96875 C 8.515625 47.425781 8.441406 47.84375 8.296875 48.21875 C 8.148438 48.601562 7.84375 48.898438 7.375 49.109375 C 6.476562 49.503906 5.695312 49.519531 5.03125 49.15625 C 4.375 48.800781 3.988281 48.175781 3.875 47.28125 C 3.832031 46.46875 3.785156 45.679688 3.734375 44.921875 C 3.484375 41.160156 3.335938 37.375 3.296875 33.5625 C 3.296875 19.632812 3.296875 5.710938 3.296875 -8.203125 C 3.296875 -13.335938 3.296875 -18.441406 3.296875 -23.515625 C 3.296875 -23.515625 3.316406 -23.515625 3.359375 -23.515625 C 3.359375 -28.640625 3.359375 -33.765625 3.359375 -38.890625 C 3.316406 -54.085938 3.316406 -69.304688 3.359375 -84.546875 C 3.359375 -87.960938 3.460938 -91.347656 3.671875 -94.703125 C 3.710938 -96.109375 4.441406 -96.867188 5.859375 -96.984375 C 7.492188 -97.191406 8.414062 -96.5 8.625 -94.90625 C 8.875 -92.875 9 -90.816406 9 -88.734375 C 9 -79.035156 9 -69.335938 9 -59.640625 C 9.050781 -52.535156 9.078125 -45.445312 9.078125 -38.375 C 9.078125 -37.0625 9.144531 -35.742188 9.28125 -34.421875 C 9.28125 -34.359375 9.332031 -34.300781 9.4375 -34.25 C 9.539062 -34.207031 9.644531 -34.160156 9.75 -34.109375 C 9.851562 -34.066406 9.925781 -34.070312 9.96875 -34.125 C 10.132812 -34.125 10.269531 -34.171875 10.375 -34.265625 C 10.476562 -34.367188 10.578125 -34.46875 10.671875 -34.5625 C 14.066406 -38.582031 17.632812 -42.40625 21.375 -46.03125 C 25.113281 -49.65625 28.890625 -53.25 32.703125 -56.8125 C 32.953125 -57.007812 33.203125 -57.238281 33.453125 -57.5 C 44.835938 -68.125 56.269531 -78.6875 67.75 -89.1875 C 70.289062 -91.539062 72.804688 -93.882812 75.296875 -96.21875 C 76.960938 -97.695312 78.640625 -99.140625 80.328125 -100.546875 C 81.546875 -101.515625 82.941406 -101.875 84.515625 -101.625 Z M 84.515625 -101.625 "/></g></g></g><g fill="#d9d9d9" fill-opacity="1"><g transform="translate(176.161219, 182.87256)"><g><path d="M 22.09375 -16.59375 C 22.53125 -17.488281 22.828125 -17.898438 22.984375 -17.828125 C 23.148438 -17.765625 23.191406 -17.40625 23.109375 -16.75 C 23.035156 -16.09375 22.894531 -15.347656 22.6875 -14.515625 C 22.382812 -13.242188 21.863281 -11.769531 21.125 -10.09375 C 20.382812 -8.414062 19.566406 -6.898438 18.671875 -5.546875 C 17.328125 -3.648438 15.664062 -2.222656 13.6875 -1.265625 C 11.71875 -0.304688 9.929688 -0.0664062 8.328125 -0.546875 C 6.722656 -1.035156 5.796875 -2.550781 5.546875 -5.09375 C 5.492188 -7.21875 5.675781 -9.550781 6.09375 -12.09375 C 6.226562 -13.15625 6.378906 -14.191406 6.546875 -15.203125 C 6.546875 -15.578125 6.453125 -15.859375 6.265625 -16.046875 C 6.085938 -16.242188 5.847656 -16.320312 5.546875 -16.28125 C 5.335938 -16.28125 5.101562 -16.28125 4.84375 -16.28125 C 3.570312 -16.070312 2.28125 -16.09375 0.96875 -16.34375 C -0.601562 -16.8125 -1.515625 -17.59375 -1.765625 -18.6875 C -2.015625 -19.78125 -1.992188 -21.21875 -1.703125 -23 C -1.535156 -24.269531 -1.054688 -25.222656 -0.265625 -25.859375 C 0.515625 -26.492188 1.4375 -26.753906 2.5 -26.640625 C 3.96875 -26.492188 4.679688 -25.925781 4.640625 -24.9375 C 4.597656 -23.945312 4.320312 -22.882812 3.8125 -21.75 C 3.351562 -20.800781 3.109375 -20.007812 3.078125 -19.375 C 3.054688 -18.738281 3.597656 -18.515625 4.703125 -18.703125 C 4.960938 -18.773438 5.242188 -18.859375 5.546875 -18.953125 C 5.960938 -19.109375 6.4375 -19.25 6.96875 -19.375 C 7.5 -19.5 8.191406 -19.53125 9.046875 -19.46875 C 10.054688 -19.414062 10.726562 -18.945312 11.0625 -18.0625 C 11.394531 -17.175781 11.539062 -16.0625 11.5 -14.71875 C 11.457031 -13.382812 11.332031 -12.023438 11.125 -10.640625 C 10.863281 -8.898438 10.734375 -7.410156 10.734375 -6.171875 C 10.734375 -4.941406 11.09375 -4.222656 11.8125 -4.015625 C 12.757812 -3.765625 14.171875 -4.625 16.046875 -6.59375 C 17.929688 -8.570312 19.945312 -11.90625 22.09375 -16.59375 Z M 22.09375 -16.59375 "/></g></g></g><g fill="#d9d9d9" fill-opacity="1"><g transform="translate(197.355971, 182.87256)"><g><path d="M 17.96875 -14.0625 C 17.257812 -12.582031 16.039062 -10.941406 14.3125 -9.140625 C 12.59375 -7.335938 10.644531 -6.191406 8.46875 -5.703125 C 6.289062 -5.222656 4.207031 -5.976562 2.21875 -7.96875 C 1.457031 -8.84375 0.894531 -9.851562 0.53125 -11 C 0.175781 -12.144531 0.046875 -13.269531 0.140625 -14.375 C 0.140625 -14.675781 0.140625 -15.054688 0.140625 -15.515625 C 0.140625 -16.691406 0.191406 -18.050781 0.296875 -19.59375 C 0.398438 -21.144531 0.628906 -22.546875 0.984375 -23.796875 C 1.347656 -25.046875 1.910156 -25.796875 2.671875 -26.046875 C 4.859375 -26.597656 6.046875 -25.835938 6.234375 -23.765625 C 6.234375 -23.085938 6.210938 -22.414062 6.171875 -21.75 C 6.117188 -21.40625 6.09375 -21.082031 6.09375 -20.78125 C 6.050781 -19.8125 6.003906 -18.84375 5.953125 -17.875 C 5.953125 -17.113281 5.921875 -16.351562 5.859375 -15.59375 C 5.804688 -12.238281 6.550781 -10.242188 8.09375 -9.609375 C 9.644531 -8.972656 11.414062 -9.644531 13.40625 -11.625 C 15.394531 -13.613281 16.691406 -15.265625 17.296875 -16.578125 C 17.910156 -17.898438 18.351562 -18.179688 18.625 -17.421875 C 18.90625 -16.660156 18.6875 -15.539062 17.96875 -14.0625 Z M 5.78125 -33.1875 C 5.476562 -32.925781 5.113281 -32.757812 4.6875 -32.6875 C 4.257812 -32.625 3.882812 -32.660156 3.5625 -32.796875 C 3.3125 -33.003906 3.148438 -33.273438 3.078125 -33.609375 C 3.015625 -33.953125 2.984375 -34.351562 2.984375 -34.8125 C 2.984375 -34.90625 3.003906 -35 3.046875 -35.09375 C 3.097656 -35.507812 3.203125 -35.921875 3.359375 -36.328125 C 3.816406 -37.441406 4.773438 -37.953125 6.234375 -37.859375 C 6.742188 -37.785156 7.140625 -37.578125 7.421875 -37.234375 C 7.710938 -36.890625 7.78125 -36.484375 7.625 -36.015625 C 7.269531 -34.890625 6.65625 -33.945312 5.78125 -33.1875 Z M 5.78125 -33.1875 "/></g></g></g><g fill="#d9d9d9" fill-opacity="1"><g transform="translate(214.360266, 182.87256)"><g><path d="M 21.03125 -18.90625 C 21.03125 -18.375 19.910156 -17.429688 17.671875 -16.078125 C 15.429688 -14.734375 13.78125 -13.71875 12.71875 -13.03125 C 11.65625 -12.351562 11.125 -11.9375 11.125 -11.78125 C 11.332031 -11.3125 11.550781 -10.535156 11.78125 -9.453125 C 12.007812 -8.367188 12.09375 -7.191406 12.03125 -5.921875 C 11.976562 -4.648438 11.566406 -3.519531 10.796875 -2.53125 C 10.035156 -1.539062 8.769531 -0.941406 7 -0.734375 C 5.21875 -0.585938 3.628906 -0.851562 2.234375 -1.53125 C 0.835938 -2.21875 -0.0351562 -3.207031 -0.390625 -4.5 C -0.753906 -5.789062 -0.320312 -7.304688 0.90625 -9.046875 C 1.707031 -10.015625 2.675781 -10.851562 3.8125 -11.5625 C 4.207031 -11.820312 4.609375 -12.101562 5.015625 -12.40625 C 3.660156 -13.875 2.367188 -15.382812 1.140625 -16.9375 C -0.078125 -18.488281 -0.863281 -19.875 -1.21875 -21.09375 C -1.582031 -22.5 -1.34375 -23.828125 -0.5 -25.078125 C 0.34375 -26.328125 1.800781 -27.054688 3.875 -27.265625 C 4.894531 -27.347656 5.847656 -27.289062 6.734375 -27.09375 C 7.628906 -26.90625 8.457031 -26.476562 9.21875 -25.8125 C 9.375 -25.644531 9.484375 -25.460938 9.546875 -25.265625 C 9.617188 -25.066406 9.585938 -24.816406 9.453125 -24.515625 C 9.203125 -24.054688 8.820312 -23.828125 8.3125 -23.828125 C 7.945312 -23.828125 7.585938 -23.875 7.234375 -23.96875 C 6.867188 -24.132812 6.535156 -24.285156 6.234375 -24.421875 C 6.023438 -24.535156 5.828125 -24.640625 5.640625 -24.734375 C 4.972656 -24.984375 4.457031 -24.945312 4.09375 -24.625 C 3.738281 -24.300781 3.5625 -23.804688 3.5625 -23.140625 C 3.613281 -21.960938 4.097656 -20.703125 5.015625 -19.359375 C 5.941406 -18.023438 6.859375 -16.789062 7.765625 -15.65625 C 8.128906 -15.257812 8.4375 -14.878906 8.6875 -14.515625 C 8.945312 -14.253906 9.617188 -14.289062 10.703125 -14.625 C 11.785156 -14.96875 13.773438 -15.898438 16.671875 -17.421875 C 19.578125 -18.941406 21.03125 -19.4375 21.03125 -18.90625 Z M 5.546875 -3.328125 C 6.210938 -3.367188 6.648438 -3.734375 6.859375 -4.421875 C 7.066406 -5.117188 7.140625 -5.882812 7.078125 -6.71875 C 7.023438 -7.550781 6.972656 -8.175781 6.921875 -8.59375 C 6.828125 -8.84375 6.664062 -9 6.4375 -9.0625 C 6.207031 -9.132812 5.988281 -9.128906 5.78125 -9.046875 C 5.019531 -8.441406 4.457031 -7.675781 4.09375 -6.75 C 3.738281 -5.832031 3.769531 -5.023438 4.1875 -4.328125 C 4.332031 -4.078125 4.519531 -3.859375 4.75 -3.671875 C 4.976562 -3.484375 5.242188 -3.367188 5.546875 -3.328125 Z M 5.546875 -3.328125 "/></g></g></g><g fill="#d9d9d9" fill-opacity="1"><g transform="translate(233.026895, 182.87256)"><g><path d="M 25.421875 -16.65625 C 26.691406 -17.882812 27.238281 -18.191406 27.0625 -17.578125 C 26.894531 -16.960938 26.195312 -15.851562 24.96875 -14.25 C 23.75 -12.644531 22.226562 -10.90625 20.40625 -9.03125 C 18.582031 -7.164062 16.648438 -5.546875 14.609375 -4.171875 C 12.578125 -2.796875 10.648438 -2.050781 8.828125 -1.9375 C 6.585938 -1.9375 4.789062 -2.597656 3.4375 -3.921875 C 2.09375 -5.253906 1.128906 -7.007812 0.546875 -9.1875 C -0.0234375 -11.375 -0.265625 -13.738281 -0.171875 -16.28125 C -0.0546875 -19.125 0.046875 -21.960938 0.140625 -24.796875 C 0.179688 -26.234375 0.226562 -27.628906 0.28125 -28.984375 C 0.394531 -31.273438 0.472656 -33.5625 0.515625 -35.84375 C 0.566406 -36.5625 0.453125 -37.160156 0.171875 -37.640625 C -0.109375 -38.128906 -0.601562 -38.398438 -1.3125 -38.453125 C -2.125 -38.492188 -3.140625 -38.515625 -4.359375 -38.515625 C -5.421875 -38.515625 -6.332031 -38.515625 -7.09375 -38.515625 C -8.15625 -38.628906 -8.863281 -38.910156 -9.21875 -39.359375 C -9.582031 -39.816406 -9.300781 -40.273438 -8.375 -40.734375 C -7.726562 -40.984375 -6.945312 -41.117188 -6.03125 -41.140625 C -5.125 -41.171875 -4.234375 -41.160156 -3.359375 -41.109375 C -2.804688 -41.066406 -2.320312 -41.046875 -1.90625 -41.046875 C -0.539062 -41.046875 0.289062 -41.257812 0.59375 -41.6875 C 0.894531 -42.113281 1.078125 -42.960938 1.140625 -44.234375 C 1.234375 -45.566406 1.300781 -46.914062 1.34375 -48.28125 C 1.394531 -49 1.457031 -49.71875 1.53125 -50.4375 C 1.53125 -51.5 1.804688 -52.457031 2.359375 -53.3125 C 2.953125 -54.113281 3.710938 -54.425781 4.640625 -54.25 C 5.453125 -54.039062 5.90625 -53.53125 6 -52.71875 C 6.0625 -51.375 6.09375 -50.023438 6.09375 -48.671875 C 6.144531 -47.898438 6.144531 -47.132812 6.09375 -46.375 C 6.09375 -45.570312 6.117188 -44.726562 6.171875 -43.84375 C 6.117188 -42.644531 6.253906 -41.890625 6.578125 -41.578125 C 6.898438 -41.265625 7.695312 -41.109375 8.96875 -41.109375 C 11.050781 -41.109375 13.109375 -41.109375 15.140625 -41.109375 C 16.054688 -41.109375 18.800781 -41.171875 23.375 -41.296875 C 27.945312 -41.429688 30.410156 -41.0625 30.765625 -40.1875 C 31.128906 -39.320312 28.238281 -38.820312 22.09375 -38.6875 C 18.375 -38.476562 15.5 -38.375 13.46875 -38.375 C 12.113281 -38.425781 10.890625 -38.453125 9.796875 -38.453125 C 7.972656 -38.453125 6.847656 -38.132812 6.421875 -37.5 C 5.992188 -36.863281 5.804688 -35.585938 5.859375 -33.671875 C 5.804688 -32.023438 5.722656 -30.035156 5.609375 -27.703125 C 5.304688 -22.929688 5.15625 -18.0625 5.15625 -13.09375 C 5.269531 -9.675781 5.878906 -7.457031 6.984375 -6.4375 C 8.097656 -5.425781 9.546875 -5.238281 11.328125 -5.875 C 13.109375 -6.507812 15.03125 -7.640625 17.09375 -9.265625 C 19.15625 -10.890625 21.203125 -12.640625 23.234375 -14.515625 C 23.679688 -15.085938 24.210938 -15.628906 24.828125 -16.140625 C 25.035156 -16.328125 25.234375 -16.5 25.421875 -16.65625 Z M 25.421875 -16.65625 "/></g></g></g><g fill="#d9d9d9" fill-opacity="1"><g transform="translate(257.996539, 182.87256)"><g><path d="M 39.109375 -17.484375 C 39.910156 -17.441406 40.046875 -17.039062 39.515625 -16.28125 C 38.984375 -15.519531 38.082031 -14.554688 36.8125 -13.390625 C 35.550781 -12.222656 34.179688 -11.003906 32.703125 -9.734375 C 30.710938 -8.046875 29.109375 -6.59375 27.890625 -5.375 C 26.523438 -4.21875 25.421875 -2.609375 24.578125 -0.546875 C 23.734375 1.503906 23.3125 3.394531 23.3125 5.125 C 23.3125 6.050781 23.3125 7.148438 23.3125 8.421875 C 23.351562 11.003906 23.347656 14.113281 23.296875 17.75 C 23.253906 21.382812 23.054688 25.140625 22.703125 29.015625 C 22.347656 32.898438 21.703125 36.546875 20.765625 39.953125 C 19.828125 43.359375 18.492188 46.140625 16.765625 48.296875 C 15.035156 50.460938 12.832031 51.648438 10.15625 51.859375 C 5 51.992188 1.460938 49.851562 -0.453125 45.4375 C -1.929688 41.726562 -2.425781 37.921875 -1.9375 34.015625 C -1.457031 30.109375 -0.367188 26.296875 1.328125 22.578125 C 3.023438 18.859375 4.941406 15.441406 7.078125 12.328125 C 9.210938 9.210938 11.222656 6.597656 13.109375 4.484375 C 14.992188 2.367188 16.335938 0.957031 17.140625 0.25 C 17.492188 -0.90625 17.695312 -2.242188 17.75 -3.765625 C 17.8125 -5.296875 17.816406 -6.773438 17.765625 -8.203125 C 17.703125 -8.671875 17.671875 -9.078125 17.671875 -9.421875 C 16.648438 -7.847656 15.597656 -6.742188 14.515625 -6.109375 C 13.429688 -5.472656 12.335938 -5.125 11.234375 -5.0625 C 10.140625 -5.007812 9.109375 -5.039062 8.140625 -5.15625 C 8.046875 -5.15625 7.953125 -5.15625 7.859375 -5.15625 C 5.617188 -5.457031 3.851562 -6.507812 2.5625 -8.3125 C 1.269531 -10.113281 0.429688 -12.164062 0.046875 -14.46875 C -0.328125 -16.78125 -0.226562 -18.851562 0.34375 -20.6875 C 0.925781 -22.53125 1.976562 -23.601562 3.5 -23.90625 C 4.125 -24.0625 4.816406 -24.140625 5.578125 -24.140625 C 6.335938 -24.140625 6.972656 -24.035156 7.484375 -23.828125 C 7.992188 -23.617188 8.164062 -23.238281 8 -22.6875 C 7.539062 -20.789062 7.273438 -18.738281 7.203125 -16.53125 C 7.128906 -14.332031 7.316406 -12.414062 7.765625 -10.78125 C 8.222656 -9.15625 9.035156 -8.28125 10.203125 -8.15625 C 11.367188 -8.03125 12.921875 -9.085938 14.859375 -11.328125 C 15.785156 -12.503906 16.421875 -13.707031 16.765625 -14.9375 C 17.109375 -16.175781 17.382812 -17.515625 17.59375 -18.953125 C 17.644531 -19.453125 17.726562 -19.957031 17.84375 -20.46875 C 17.882812 -20.976562 17.953125 -21.488281 18.046875 -22 C 18.117188 -22.664062 18.195312 -23.320312 18.28125 -23.96875 C 18.539062 -25.03125 19.132812 -25.769531 20.0625 -26.1875 C 21 -26.601562 22.015625 -26.554688 23.109375 -26.046875 C 23.660156 -25.722656 23.984375 -25.257812 24.078125 -24.65625 C 24.191406 -23.476562 24.25 -22.3125 24.25 -21.15625 C 24.175781 -17.050781 24.140625 -12 24.140625 -6 C 24.210938 -6.039062 24.722656 -6.46875 25.671875 -7.28125 C 26.890625 -8.40625 28.4375 -9.753906 30.3125 -11.328125 C 32.195312 -12.898438 33.976562 -14.304688 35.65625 -15.546875 C 37.332031 -16.796875 38.484375 -17.441406 39.109375 -17.484375 Z M 16.515625 17.703125 C 16.515625 17.148438 16.550781 16.570312 16.625 15.96875 C 16.664062 13.769531 16.734375 11.550781 16.828125 9.3125 C 16.828125 9.21875 16.789062 9.097656 16.71875 8.953125 C 16.65625 8.804688 16.566406 8.695312 16.453125 8.625 C 16.203125 8.4375 15.988281 8.40625 15.8125 8.53125 C 15.632812 8.664062 15.46875 8.800781 15.3125 8.9375 C 13.1875 11.6875 11.179688 14.796875 9.296875 18.265625 C 7.421875 21.742188 5.953125 25.363281 4.890625 29.125 C 3.828125 32.894531 3.382812 36.578125 3.5625 40.171875 C 3.726562 42.421875 4.445312 44.476562 5.71875 46.34375 C 7.238281 48.445312 8.570312 49.203125 9.71875 48.609375 C 10.863281 48.023438 11.828125 46.578125 12.609375 44.265625 C 13.390625 41.953125 14.035156 39.234375 14.546875 36.109375 C 15.054688 32.984375 15.445312 29.921875 15.71875 26.921875 C 16 23.929688 16.222656 21.445312 16.390625 19.46875 C 16.429688 18.800781 16.472656 18.210938 16.515625 17.703125 Z M 16.515625 17.703125 "/></g></g></g><g fill="#000000" fill-opacity="1"><g transform="translate(105.4679, 184.007668)"><g><path d="M 84.515625 -101.625 C 85.117188 -101.53125 85.566406 -101.195312 85.859375 -100.625 C 86.023438 -100.320312 86.046875 -100.054688 85.921875 -99.828125 C 85.796875 -99.597656 85.628906 -99.351562 85.421875 -99.09375 C 83.546875 -97.382812 81.640625 -95.644531 79.703125 -93.875 C 77.828125 -92.09375 75.945312 -90.335938 74.0625 -88.609375 C 69.1875 -84.035156 64.3125 -79.460938 59.4375 -74.890625 C 49.875 -65.992188 40.328125 -57.078125 30.796875 -48.140625 C 25.921875 -43.660156 21.320312 -38.882812 17 -33.8125 C 15.476562 -32.03125 14.050781 -30.144531 12.71875 -28.15625 C 11.8125 -26.84375 11.082031 -25.425781 10.53125 -23.90625 C 9.5625 -21.363281 10.160156 -19.25 12.328125 -17.5625 C 13.765625 -16.539062 15.265625 -15.648438 16.828125 -14.890625 C 19.160156 -13.734375 21.550781 -12.742188 24 -11.921875 C 26.445312 -11.109375 28.90625 -10.351562 31.375 -9.65625 C 39.71875 -7.21875 48.054688 -4.804688 56.390625 -2.421875 C 57.109375 -2.210938 57.820312 -2.003906 58.53125 -1.796875 C 58.675781 -1.753906 58.851562 -1.707031 59.0625 -1.65625 C 59.613281 -1.5 60.140625 -1.304688 60.640625 -1.078125 C 61.148438 -0.847656 61.613281 -0.5 62.03125 -0.03125 C 62.289062 0.269531 62.367188 0.609375 62.265625 0.984375 C 62.160156 1.367188 61.957031 1.628906 61.65625 1.765625 C 60.59375 2.179688 59.578125 2.160156 58.609375 1.703125 C 57.285156 1.054688 55.910156 0.550781 54.484375 0.1875 C 53.054688 -0.164062 51.613281 -0.492188 50.15625 -0.796875 C 48.882812 -1.046875 47.613281 -1.359375 46.34375 -1.734375 C 44.351562 -2.242188 42.367188 -2.726562 40.390625 -3.1875 C 35.054688 -4.5 29.765625 -5.960938 24.515625 -7.578125 C 20.160156 -8.898438 15.898438 -10.507812 11.734375 -12.40625 C 10.554688 -12.957031 9.816406 -13.113281 9.515625 -12.875 C 9.222656 -12.644531 9.078125 -11.875 9.078125 -10.5625 C 9.023438 -9.800781 9 -9.0625 9 -8.34375 C 9.050781 -8.039062 9.078125 -7.742188 9.078125 -7.453125 C 9.078125 -3.429688 9.078125 0.585938 9.078125 4.609375 C 9.078125 15.066406 9.050781 25.503906 9 35.921875 C 9 38.410156 8.894531 40.90625 8.6875 43.40625 C 8.644531 44.550781 8.585938 45.738281 8.515625 46.96875 C 8.515625 47.425781 8.441406 47.84375 8.296875 48.21875 C 8.148438 48.601562 7.84375 48.898438 7.375 49.109375 C 6.476562 49.503906 5.695312 49.519531 5.03125 49.15625 C 4.375 48.800781 3.988281 48.175781 3.875 47.28125 C 3.832031 46.46875 3.785156 45.679688 3.734375 44.921875 C 3.484375 41.160156 3.335938 37.375 3.296875 33.5625 C 3.296875 19.632812 3.296875 5.710938 3.296875 -8.203125 C 3.296875 -13.335938 3.296875 -18.441406 3.296875 -23.515625 C 3.296875 -23.515625 3.316406 -23.515625 3.359375 -23.515625 C 3.359375 -28.640625 3.359375 -33.765625 3.359375 -38.890625 C 3.316406 -54.085938 3.316406 -69.304688 3.359375 -84.546875 C 3.359375 -87.960938 3.460938 -91.347656 3.671875 -94.703125 C 3.710938 -96.109375 4.441406 -96.867188 5.859375 -96.984375 C 7.492188 -97.191406 8.414062 -96.5 8.625 -94.90625 C 8.875 -92.875 9 -90.816406 9 -88.734375 C 9 -79.035156 9 -69.335938 9 -59.640625 C 9.050781 -52.535156 9.078125 -45.445312 9.078125 -38.375 C 9.078125 -37.0625 9.144531 -35.742188 9.28125 -34.421875 C 9.28125 -34.359375 9.332031 -34.300781 9.4375 -34.25 C 9.539062 -34.207031 9.644531 -34.160156 9.75 -34.109375 C 9.851562 -34.066406 9.925781 -34.070312 9.96875 -34.125 C 10.132812 -34.125 10.269531 -34.171875 10.375 -34.265625 C 10.476562 -34.367188 10.578125 -34.46875 10.671875 -34.5625 C 14.066406 -38.582031 17.632812 -42.40625 21.375 -46.03125 C 25.113281 -49.65625 28.890625 -53.25 32.703125 -56.8125 C 32.953125 -57.007812 33.203125 -57.238281 33.453125 -57.5 C 44.835938 -68.125 56.269531 -78.6875 67.75 -89.1875 C 70.289062 -91.539062 72.804688 -93.882812 75.296875 -96.21875 C 76.960938 -97.695312 78.640625 -99.140625 80.328125 -100.546875 C 81.546875 -101.515625 82.941406 -101.875 84.515625 -101.625 Z M 84.515625 -101.625 "/></g></g></g><g fill="#000000" fill-opacity="1"><g transform="translate(171.614921, 184.007668)"><g><path d="M 22.09375 -16.59375 C 22.53125 -17.488281 22.828125 -17.898438 22.984375 -17.828125 C 23.148438 -17.765625 23.191406 -17.40625 23.109375 -16.75 C 23.035156 -16.09375 22.894531 -15.347656 22.6875 -14.515625 C 22.382812 -13.242188 21.863281 -11.769531 21.125 -10.09375 C 20.382812 -8.414062 19.566406 -6.898438 18.671875 -5.546875 C 17.328125 -3.648438 15.664062 -2.222656 13.6875 -1.265625 C 11.71875 -0.304688 9.929688 -0.0664062 8.328125 -0.546875 C 6.722656 -1.035156 5.796875 -2.550781 5.546875 -5.09375 C 5.492188 -7.21875 5.675781 -9.550781 6.09375 -12.09375 C 6.226562 -13.15625 6.378906 -14.191406 6.546875 -15.203125 C 6.546875 -15.578125 6.453125 -15.859375 6.265625 -16.046875 C 6.085938 -16.242188 5.847656 -16.320312 5.546875 -16.28125 C 5.335938 -16.28125 5.101562 -16.28125 4.84375 -16.28125 C 3.570312 -16.070312 2.28125 -16.09375 0.96875 -16.34375 C -0.601562 -16.8125 -1.515625 -17.59375 -1.765625 -18.6875 C -2.015625 -19.78125 -1.992188 -21.21875 -1.703125 -23 C -1.535156 -24.269531 -1.054688 -25.222656 -0.265625 -25.859375 C 0.515625 -26.492188 1.4375 -26.753906 2.5 -26.640625 C 3.96875 -26.492188 4.679688 -25.925781 4.640625 -24.9375 C 4.597656 -23.945312 4.320312 -22.882812 3.8125 -21.75 C 3.351562 -20.800781 3.109375 -20.007812 3.078125 -19.375 C 3.054688 -18.738281 3.597656 -18.515625 4.703125 -18.703125 C 4.960938 -18.773438 5.242188 -18.859375 5.546875 -18.953125 C 5.960938 -19.109375 6.4375 -19.25 6.96875 -19.375 C 7.5 -19.5 8.191406 -19.53125 9.046875 -19.46875 C 10.054688 -19.414062 10.726562 -18.945312 11.0625 -18.0625 C 11.394531 -17.175781 11.539062 -16.0625 11.5 -14.71875 C 11.457031 -13.382812 11.332031 -12.023438 11.125 -10.640625 C 10.863281 -8.898438 10.734375 -7.410156 10.734375 -6.171875 C 10.734375 -4.941406 11.09375 -4.222656 11.8125 -4.015625 C 12.757812 -3.765625 14.171875 -4.625 16.046875 -6.59375 C 17.929688 -8.570312 19.945312 -11.90625 22.09375 -16.59375 Z M 22.09375 -16.59375 "/></g></g></g><g fill="#000000" fill-opacity="1"><g transform="translate(192.809673, 184.007668)"><g><path d="M 17.96875 -14.0625 C 17.257812 -12.582031 16.039062 -10.941406 14.3125 -9.140625 C 12.59375 -7.335938 10.644531 -6.191406 8.46875 -5.703125 C 6.289062 -5.222656 4.207031 -5.976562 2.21875 -7.96875 C 1.457031 -8.84375 0.894531 -9.851562 0.53125 -11 C 0.175781 -12.144531 0.046875 -13.269531 0.140625 -14.375 C 0.140625 -14.675781 0.140625 -15.054688 0.140625 -15.515625 C 0.140625 -16.691406 0.191406 -18.050781 0.296875 -19.59375 C 0.398438 -21.144531 0.628906 -22.546875 0.984375 -23.796875 C 1.347656 -25.046875 1.910156 -25.796875 2.671875 -26.046875 C 4.859375 -26.597656 6.046875 -25.835938 6.234375 -23.765625 C 6.234375 -23.085938 6.210938 -22.414062 6.171875 -21.75 C 6.117188 -21.40625 6.09375 -21.082031 6.09375 -20.78125 C 6.050781 -19.8125 6.003906 -18.84375 5.953125 -17.875 C 5.953125 -17.113281 5.921875 -16.351562 5.859375 -15.59375 C 5.804688 -12.238281 6.550781 -10.242188 8.09375 -9.609375 C 9.644531 -8.972656 11.414062 -9.644531 13.40625 -11.625 C 15.394531 -13.613281 16.691406 -15.265625 17.296875 -16.578125 C 17.910156 -17.898438 18.351562 -18.179688 18.625 -17.421875 C 18.90625 -16.660156 18.6875 -15.539062 17.96875 -14.0625 Z M 5.78125 -33.1875 C 5.476562 -32.925781 5.113281 -32.757812 4.6875 -32.6875 C 4.257812 -32.625 3.882812 -32.660156 3.5625 -32.796875 C 3.3125 -33.003906 3.148438 -33.273438 3.078125 -33.609375 C 3.015625 -33.953125 2.984375 -34.351562 2.984375 -34.8125 C 2.984375 -34.90625 3.003906 -35 3.046875 -35.09375 C 3.097656 -35.507812 3.203125 -35.921875 3.359375 -36.328125 C 3.816406 -37.441406 4.773438 -37.953125 6.234375 -37.859375 C 6.742188 -37.785156 7.140625 -37.578125 7.421875 -37.234375 C 7.710938 -36.890625 7.78125 -36.484375 7.625 -36.015625 C 7.269531 -34.890625 6.65625 -33.945312 5.78125 -33.1875 Z M 5.78125 -33.1875 "/></g></g></g><g fill="#000000" fill-opacity="1"><g transform="translate(209.813968, 184.007668)"><g><path d="M 21.03125 -18.90625 C 21.03125 -18.375 19.910156 -17.429688 17.671875 -16.078125 C 15.429688 -14.734375 13.78125 -13.71875 12.71875 -13.03125 C 11.65625 -12.351562 11.125 -11.9375 11.125 -11.78125 C 11.332031 -11.3125 11.550781 -10.535156 11.78125 -9.453125 C 12.007812 -8.367188 12.09375 -7.191406 12.03125 -5.921875 C 11.976562 -4.648438 11.566406 -3.519531 10.796875 -2.53125 C 10.035156 -1.539062 8.769531 -0.941406 7 -0.734375 C 5.21875 -0.585938 3.628906 -0.851562 2.234375 -1.53125 C 0.835938 -2.21875 -0.0351562 -3.207031 -0.390625 -4.5 C -0.753906 -5.789062 -0.320312 -7.304688 0.90625 -9.046875 C 1.707031 -10.015625 2.675781 -10.851562 3.8125 -11.5625 C 4.207031 -11.820312 4.609375 -12.101562 5.015625 -12.40625 C 3.660156 -13.875 2.367188 -15.382812 1.140625 -16.9375 C -0.078125 -18.488281 -0.863281 -19.875 -1.21875 -21.09375 C -1.582031 -22.5 -1.34375 -23.828125 -0.5 -25.078125 C 0.34375 -26.328125 1.800781 -27.054688 3.875 -27.265625 C 4.894531 -27.347656 5.847656 -27.289062 6.734375 -27.09375 C 7.628906 -26.90625 8.457031 -26.476562 9.21875 -25.8125 C 9.375 -25.644531 9.484375 -25.460938 9.546875 -25.265625 C 9.617188 -25.066406 9.585938 -24.816406 9.453125 -24.515625 C 9.203125 -24.054688 8.820312 -23.828125 8.3125 -23.828125 C 7.945312 -23.828125 7.585938 -23.875 7.234375 -23.96875 C 6.867188 -24.132812 6.535156 -24.285156 6.234375 -24.421875 C 6.023438 -24.535156 5.828125 -24.640625 5.640625 -24.734375 C 4.972656 -24.984375 4.457031 -24.945312 4.09375 -24.625 C 3.738281 -24.300781 3.5625 -23.804688 3.5625 -23.140625 C 3.613281 -21.960938 4.097656 -20.703125 5.015625 -19.359375 C 5.941406 -18.023438 6.859375 -16.789062 7.765625 -15.65625 C 8.128906 -15.257812 8.4375 -14.878906 8.6875 -14.515625 C 8.945312 -14.253906 9.617188 -14.289062 10.703125 -14.625 C 11.785156 -14.96875 13.773438 -15.898438 16.671875 -17.421875 C 19.578125 -18.941406 21.03125 -19.4375 21.03125 -18.90625 Z M 5.546875 -3.328125 C 6.210938 -3.367188 6.648438 -3.734375 6.859375 -4.421875 C 7.066406 -5.117188 7.140625 -5.882812 7.078125 -6.71875 C 7.023438 -7.550781 6.972656 -8.175781 6.921875 -8.59375 C 6.828125 -8.84375 6.664062 -9 6.4375 -9.0625 C 6.207031 -9.132812 5.988281 -9.128906 5.78125 -9.046875 C 5.019531 -8.441406 4.457031 -7.675781 4.09375 -6.75 C 3.738281 -5.832031 3.769531 -5.023438 4.1875 -4.328125 C 4.332031 -4.078125 4.519531 -3.859375 4.75 -3.671875 C 4.976562 -3.484375 5.242188 -3.367188 5.546875 -3.328125 Z M 5.546875 -3.328125 "/></g></g></g><g fill="#000000" fill-opacity="1"><g transform="translate(228.480597, 184.007668)"><g><path d="M 25.421875 -16.65625 C 26.691406 -17.882812 27.238281 -18.191406 27.0625 -17.578125 C 26.894531 -16.960938 26.195312 -15.851562 24.96875 -14.25 C 23.75 -12.644531 22.226562 -10.90625 20.40625 -9.03125 C 18.582031 -7.164062 16.648438 -5.546875 14.609375 -4.171875 C 12.578125 -2.796875 10.648438 -2.050781 8.828125 -1.9375 C 6.585938 -1.9375 4.789062 -2.597656 3.4375 -3.921875 C 2.09375 -5.253906 1.128906 -7.007812 0.546875 -9.1875 C -0.0234375 -11.375 -0.265625 -13.738281 -0.171875 -16.28125 C -0.0546875 -19.125 0.046875 -21.960938 0.140625 -24.796875 C 0.179688 -26.234375 0.226562 -27.628906 0.28125 -28.984375 C 0.394531 -31.273438 0.472656 -33.5625 0.515625 -35.84375 C 0.566406 -36.5625 0.453125 -37.160156 0.171875 -37.640625 C -0.109375 -38.128906 -0.601562 -38.398438 -1.3125 -38.453125 C -2.125 -38.492188 -3.140625 -38.515625 -4.359375 -38.515625 C -5.421875 -38.515625 -6.332031 -38.515625 -7.09375 -38.515625 C -8.15625 -38.628906 -8.863281 -38.910156 -9.21875 -39.359375 C -9.582031 -39.816406 -9.300781 -40.273438 -8.375 -40.734375 C -7.726562 -40.984375 -6.945312 -41.117188 -6.03125 -41.140625 C -5.125 -41.171875 -4.234375 -41.160156 -3.359375 -41.109375 C -2.804688 -41.066406 -2.320312 -41.046875 -1.90625 -41.046875 C -0.539062 -41.046875 0.289062 -41.257812 0.59375 -41.6875 C 0.894531 -42.113281 1.078125 -42.960938 1.140625 -44.234375 C 1.234375 -45.566406 1.300781 -46.914062 1.34375 -48.28125 C 1.394531 -49 1.457031 -49.71875 1.53125 -50.4375 C 1.53125 -51.5 1.804688 -52.457031 2.359375 -53.3125 C 2.953125 -54.113281 3.710938 -54.425781 4.640625 -54.25 C 5.453125 -54.039062 5.90625 -53.53125 6 -52.71875 C 6.0625 -51.375 6.09375 -50.023438 6.09375 -48.671875 C 6.144531 -47.898438 6.144531 -47.132812 6.09375 -46.375 C 6.09375 -45.570312 6.117188 -44.726562 6.171875 -43.84375 C 6.117188 -42.644531 6.253906 -41.890625 6.578125 -41.578125 C 6.898438 -41.265625 7.695312 -41.109375 8.96875 -41.109375 C 11.050781 -41.109375 13.109375 -41.109375 15.140625 -41.109375 C 16.054688 -41.109375 18.800781 -41.171875 23.375 -41.296875 C 27.945312 -41.429688 30.410156 -41.0625 30.765625 -40.1875 C 31.128906 -39.320312 28.238281 -38.820312 22.09375 -38.6875 C 18.375 -38.476562 15.5 -38.375 13.46875 -38.375 C 12.113281 -38.425781 10.890625 -38.453125 9.796875 -38.453125 C 7.972656 -38.453125 6.847656 -38.132812 6.421875 -37.5 C 5.992188 -36.863281 5.804688 -35.585938 5.859375 -33.671875 C 5.804688 -32.023438 5.722656 -30.035156 5.609375 -27.703125 C 5.304688 -22.929688 5.15625 -18.0625 5.15625 -13.09375 C 5.269531 -9.675781 5.878906 -7.457031 6.984375 -6.4375 C 8.097656 -5.425781 9.546875 -5.238281 11.328125 -5.875 C 13.109375 -6.507812 15.03125 -7.640625 17.09375 -9.265625 C 19.15625 -10.890625 21.203125 -12.640625 23.234375 -14.515625 C 23.679688 -15.085938 24.210938 -15.628906 24.828125 -16.140625 C 25.035156 -16.328125 25.234375 -16.5 25.421875 -16.65625 Z M 25.421875 -16.65625 "/></g></g></g><g fill="#000000" fill-opacity="1"><g transform="translate(253.450241, 184.007668)"><g><path d="M 39.109375 -17.484375 C 39.910156 -17.441406 40.046875 -17.039062 39.515625 -16.28125 C 38.984375 -15.519531 38.082031 -14.554688 36.8125 -13.390625 C 35.550781 -12.222656 34.179688 -11.003906 32.703125 -9.734375 C 30.710938 -8.046875 29.109375 -6.59375 27.890625 -5.375 C 26.523438 -4.21875 25.421875 -2.609375 24.578125 -0.546875 C 23.734375 1.503906 23.3125 3.394531 23.3125 5.125 C 23.3125 6.050781 23.3125 7.148438 23.3125 8.421875 C 23.351562 11.003906 23.347656 14.113281 23.296875 17.75 C 23.253906 21.382812 23.054688 25.140625 22.703125 29.015625 C 22.347656 32.898438 21.703125 36.546875 20.765625 39.953125 C 19.828125 43.359375 18.492188 46.140625 16.765625 48.296875 C 15.035156 50.460938 12.832031 51.648438 10.15625 51.859375 C 5 51.992188 1.460938 49.851562 -0.453125 45.4375 C -1.929688 41.726562 -2.425781 37.921875 -1.9375 34.015625 C -1.457031 30.109375 -0.367188 26.296875 1.328125 22.578125 C 3.023438 18.859375 4.941406 15.441406 7.078125 12.328125 C 9.210938 9.210938 11.222656 6.597656 13.109375 4.484375 C 14.992188 2.367188 16.335938 0.957031 17.140625 0.25 C 17.492188 -0.90625 17.695312 -2.242188 17.75 -3.765625 C 17.8125 -5.296875 17.816406 -6.773438 17.765625 -8.203125 C 17.703125 -8.671875 17.671875 -9.078125 17.671875 -9.421875 C 16.648438 -7.847656 15.597656 -6.742188 14.515625 -6.109375 C 13.429688 -5.472656 12.335938 -5.125 11.234375 -5.0625 C 10.140625 -5.007812 9.109375 -5.039062 8.140625 -5.15625 C 8.046875 -5.15625 7.953125 -5.15625 7.859375 -5.15625 C 5.617188 -5.457031 3.851562 -6.507812 2.5625 -8.3125 C 1.269531 -10.113281 0.429688 -12.164062 0.046875 -14.46875 C -0.328125 -16.78125 -0.226562 -18.851562 0.34375 -20.6875 C 0.925781 -22.53125 1.976562 -23.601562 3.5 -23.90625 C 4.125 -24.0625 4.816406 -24.140625 5.578125 -24.140625 C 6.335938 -24.140625 6.972656 -24.035156 7.484375 -23.828125 C 7.992188 -23.617188 8.164062 -23.238281 8 -22.6875 C 7.539062 -20.789062 7.273438 -18.738281 7.203125 -16.53125 C 7.128906 -14.332031 7.316406 -12.414062 7.765625 -10.78125 C 8.222656 -9.15625 9.035156 -8.28125 10.203125 -8.15625 C 11.367188 -8.03125 12.921875 -9.085938 14.859375 -11.328125 C 15.785156 -12.503906 16.421875 -13.707031 16.765625 -14.9375 C 17.109375 -16.175781 17.382812 -17.515625 17.59375 -18.953125 C 17.644531 -19.453125 17.726562 -19.957031 17.84375 -20.46875 C 17.882812 -20.976562 17.953125 -21.488281 18.046875 -22 C 18.117188 -22.664062 18.195312 -23.320312 18.28125 -23.96875 C 18.539062 -25.03125 19.132812 -25.769531 20.0625 -26.1875 C 21 -26.601562 22.015625 -26.554688 23.109375 -26.046875 C 23.660156 -25.722656 23.984375 -25.257812 24.078125 -24.65625 C 24.191406 -23.476562 24.25 -22.3125 24.25 -21.15625 C 24.175781 -17.050781 24.140625 -12 24.140625 -6 C 24.210938 -6.039062 24.722656 -6.46875 25.671875 -7.28125 C 26.890625 -8.40625 28.4375 -9.753906 30.3125 -11.328125 C 32.195312 -12.898438 33.976562 -14.304688 35.65625 -15.546875 C 37.332031 -16.796875 38.484375 -17.441406 39.109375 -17.484375 Z M 16.515625 17.703125 C 16.515625 17.148438 16.550781 16.570312 16.625 15.96875 C 16.664062 13.769531 16.734375 11.550781 16.828125 9.3125 C 16.828125 9.21875 16.789062 9.097656 16.71875 8.953125 C 16.65625 8.804688 16.566406 8.695312 16.453125 8.625 C 16.203125 8.4375 15.988281 8.40625 15.8125 8.53125 C 15.632812 8.664062 15.46875 8.800781 15.3125 8.9375 C 13.1875 11.6875 11.179688 14.796875 9.296875 18.265625 C 7.421875 21.742188 5.953125 25.363281 4.890625 29.125 C 3.828125 32.894531 3.382812 36.578125 3.5625 40.171875 C 3.726562 42.421875 4.445312 44.476562 5.71875 46.34375 C 7.238281 48.445312 8.570312 49.203125 9.71875 48.609375 C 10.863281 48.023438 11.828125 46.578125 12.609375 44.265625 C 13.390625 41.953125 14.035156 39.234375 14.546875 36.109375 C 15.054688 32.984375 15.445312 29.921875 15.71875 26.921875 C 16 23.929688 16.222656 21.445312 16.390625 19.46875 C 16.429688 18.800781 16.472656 18.210938 16.515625 17.703125 Z M 16.515625 17.703125 "/></g></g></g><g fill="#000000" fill-opacity="1"><g transform="translate(138.912301, 221.566482)"><g><path d="M 13.03125 0 L 11.453125 -3.65625 L 3.96875 -3.65625 L 2.390625 0 L 0.203125 0 L 6.796875 -14.796875 L 8.609375 -14.796875 L 15.1875 0 Z M 4.703125 -5.375 L 10.71875 -5.375 L 7.71875 -12.375 Z M 4.703125 -5.375 "/></g></g></g><g fill="#000000" fill-opacity="1"><g transform="translate(159.667255, 221.566482)"><g><path d="M 1.71875 -14.796875 L 6.90625 -14.796875 C 9.300781 -14.796875 11.15625 -14.148438 12.46875 -12.859375 C 13.78125 -11.578125 14.4375 -9.757812 14.4375 -7.40625 C 14.4375 -5.050781 13.78125 -3.226562 12.46875 -1.9375 C 11.15625 -0.644531 9.300781 0 6.90625 0 L 1.71875 0 Z M 6.78125 -1.796875 C 10.414062 -1.796875 12.234375 -3.664062 12.234375 -7.40625 C 12.234375 -11.125 10.414062 -12.984375 6.78125 -12.984375 L 3.875 -12.984375 L 3.875 -1.796875 Z M 6.78125 -1.796875 "/></g></g></g><g fill="#000000" fill-opacity="1"><g transform="translate(180.673978, 221.566482)"><g><path d="M 13.03125 0 L 11.453125 -3.65625 L 3.96875 -3.65625 L 2.390625 0 L 0.203125 0 L 6.796875 -14.796875 L 8.609375 -14.796875 L 15.1875 0 Z M 4.703125 -5.375 L 10.71875 -5.375 L 7.71875 -12.375 Z M 4.703125 -5.375 "/></g></g></g><g fill="#000000" fill-opacity="1"><g transform="translate(201.428932, 221.566482)"><g><path d="M 14.1875 -14.796875 L 15.90625 -14.796875 L 15.90625 0 L 13.953125 0 L 13.96875 -10.703125 L 9.5625 -2.375 L 8.09375 -2.375 L 3.671875 -10.59375 L 3.6875 0 L 1.734375 0 L 1.734375 -14.796875 L 3.484375 -14.796875 L 8.859375 -4.546875 Z M 14.1875 -14.796875 "/></g></g></g><g fill="#000000" fill-opacity="1"><g transform="translate(224.428927, 221.566482)"><g><path d="M 6.5625 0.171875 C 5.414062 0.171875 4.363281 0.0195312 3.40625 -0.28125 C 2.445312 -0.59375 1.625 -1.050781 0.9375 -1.65625 L 1.71875 -3.25 C 2.445312 -2.664062 3.195312 -2.242188 3.96875 -1.984375 C 4.75 -1.722656 5.625 -1.59375 6.59375 -1.59375 C 7.695312 -1.59375 8.546875 -1.796875 9.140625 -2.203125 C 9.742188 -2.617188 10.046875 -3.207031 10.046875 -3.96875 C 10.046875 -4.613281 9.765625 -5.09375 9.203125 -5.40625 C 8.648438 -5.71875 7.757812 -6.015625 6.53125 -6.296875 C 5.351562 -6.546875 4.382812 -6.832031 3.625 -7.15625 C 2.875 -7.476562 2.285156 -7.914062 1.859375 -8.46875 C 1.429688 -9.019531 1.21875 -9.722656 1.21875 -10.578125 C 1.21875 -11.441406 1.441406 -12.203125 1.890625 -12.859375 C 2.347656 -13.515625 2.992188 -14.03125 3.828125 -14.40625 C 4.671875 -14.78125 5.644531 -14.96875 6.75 -14.96875 C 7.789062 -14.96875 8.769531 -14.804688 9.6875 -14.484375 C 10.601562 -14.171875 11.351562 -13.722656 11.9375 -13.140625 L 11.1875 -11.546875 C 10.5 -12.097656 9.796875 -12.507812 9.078125 -12.78125 C 8.359375 -13.0625 7.59375 -13.203125 6.78125 -13.203125 C 5.71875 -13.203125 4.878906 -12.976562 4.265625 -12.53125 C 3.660156 -12.09375 3.359375 -11.484375 3.359375 -10.703125 C 3.359375 -10.023438 3.625 -9.515625 4.15625 -9.171875 C 4.6875 -8.835938 5.539062 -8.53125 6.71875 -8.25 C 7.945312 -7.96875 8.941406 -7.675781 9.703125 -7.375 C 10.460938 -7.070312 11.070312 -6.65625 11.53125 -6.125 C 11.988281 -5.601562 12.21875 -4.925781 12.21875 -4.09375 C 12.21875 -3.238281 11.988281 -2.488281 11.53125 -1.84375 C 11.070312 -1.195312 10.421875 -0.695312 9.578125 -0.34375 C 8.734375 0 7.726562 0.171875 6.5625 0.171875 Z M 6.5625 0.171875 "/></g></g></g></svg>