<svg xmlns="http://www.w3.org/2000/svg" xmlns:xlink="http://www.w3.org/1999/xlink" width="500" zoomAndPan="magnify" viewBox="0 0 375 374.999991" height="500" preserveAspectRatio="xMidYMid meet" version="1.0"><defs><g/><clipPath id="6f17d13c40"><path d="M 41.460938 37.5 L 336.210938 37.5 L 336.210938 328 L 41.460938 328 Z M 41.460938 37.5 " clip-rule="nonzero"/></clipPath></defs><g clip-path="url(#6f17d13c40)"><path fill="#000000" d="M 327.582031 39.589844 C 326.941406 43.167969 325.746094 46.554688 325.828125 49.910156 C 326.171875 62.03125 326.800781 74.136719 327.582031 86.234375 C 329.316406 113.027344 331.164062 139.816406 329.027344 166.753906 C 327.464844 186.542969 326.183594 206.355469 325.175781 226.195312 C 324.871094 233.207031 325.226562 240.179688 326.246094 247.125 C 329.21875 268.160156 332.660156 289.128906 335.867188 310.144531 C 336.203125 312.203125 336.203125 314.265625 335.867188 316.324219 C 335.367188 319.132812 333.65625 320.515625 330.457031 320.613281 C 315.105469 320.835938 299.765625 321.5 284.414062 321.597656 C 278.332031 321.617188 272.308594 321.058594 266.335938 319.925781 C 241.53125 315.265625 216.644531 316.925781 191.742188 318.320312 C 179.183594 319.027344 166.609375 319.710938 154.058594 320.546875 C 136.855469 321.707031 119.675781 323.035156 102.472656 324.191406 C 98.289062 324.574219 94.097656 324.644531 89.902344 324.394531 C 76.558594 323.410156 63.371094 324.449219 50.34375 327.511719 C 46.355469 328.390625 44.773438 327.148438 44.089844 323.121094 C 44.011719 322.660156 43.96875 322.195312 43.960938 321.726562 C 43.960938 300.722656 43.792969 279.722656 43.960938 258.71875 C 44.175781 227.640625 44.765625 196.566406 44.851562 165.492188 C 44.851562 152.632812 43.886719 139.773438 43.632812 126.96875 C 43.386719 114.386719 43.632812 101.796875 43.386719 89.203125 C 43.183594 81.285156 42.648438 73.355469 42.058594 65.449219 C 41.472656 57.730469 42.058594 56.777344 48.859375 53.765625 C 53.40625 51.71875 58.167969 50.859375 63.140625 51.195312 C 90.414062 52.835938 117.664062 51.558594 144.894531 50.382812 C 159.53125 49.75 174.125 48.078125 188.730469 47.359375 C 199.175781 46.855469 209.671875 47.015625 220.140625 47.144531 C 237.246094 47.339844 254.019531 46.339844 270.847656 42.859375 C 283.355469 40.242188 296.386719 40.4375 309.023438 38.496094 C 315.425781 37.523438 321.351562 37.488281 327.582031 39.589844 Z M 318.207031 46.757812 C 315 46.757812 312.488281 46.578125 309.984375 46.757812 C 299.292969 47.636719 288.605469 48.625 277.914062 49.609375 C 275.816406 49.726562 273.746094 50.019531 271.703125 50.488281 C 248.585938 56.703125 224.980469 55.019531 201.472656 55.074219 C 196.128906 55.074219 190.78125 55.074219 185.4375 55.386719 C 168.972656 56.296875 152.476562 57.3125 135.96875 58.214844 C 132.484375 58.40625 128.988281 58.558594 125.492188 58.578125 C 108.953125 58.695312 92.414062 58.730469 75.875 58.867188 C 68.894531 58.933594 61.878906 58.867188 54.941406 59.445312 C 49.402344 59.929688 48.386719 61.589844 48.589844 67.269531 C 48.976562 78.273438 49.523438 89.289062 49.90625 100.21875 C 50.324219 111.878906 50.582031 123.546875 50.976562 135.21875 C 51.359375 146.179688 52.195312 157.144531 52.195312 168.117188 C 52.195312 186.332031 51.519531 204.550781 51.445312 222.765625 C 51.328125 249.640625 51.445312 276.507812 51.585938 303.382812 C 51.585938 308.171875 52.097656 312.949219 52.398438 318.234375 C 57.046875 317.75 60.726562 317.417969 64.402344 316.992188 C 73.628906 315.917969 82.800781 314.847656 92.199219 315.683594 C 99.339844 316.304688 106.621094 315.683594 113.804688 315.242188 C 120.550781 314.859375 127.253906 313.839844 133.992188 313.445312 C 157.511719 312.0625 180.976562 310.625 204.496094 309.628906 C 217.066406 308.949219 229.632812 308.914062 242.203125 309.53125 C 262.1875 310.742188 281.984375 314.203125 302.074219 314.140625 C 311.152344 314.140625 319.894531 312.328125 329.273438 311.996094 C 328.953125 308.609375 328.84375 306.058594 328.460938 303.554688 C 325.746094 286.015625 322.988281 268.484375 320.195312 250.960938 C 318.542969 241.25 318.097656 231.484375 318.859375 221.664062 C 320.292969 204.914062 321.148438 188.113281 322.429688 171.296875 C 323.753906 154.046875 324.847656 136.773438 323.316406 119.507812 C 322.152344 106.007812 323.0625 92.503906 320.699219 78.980469 C 318.902344 68.707031 319.007812 58.097656 318.207031 46.757812 Z M 318.207031 46.757812 " fill-opacity="1" fill-rule="nonzero"/></g><g fill="#000000" fill-opacity="1"><g transform="translate(83.762698, 202.319665)"><g><path d="M 105.171875 -126.46875 C 105.921875 -126.351562 106.484375 -125.9375 106.859375 -125.21875 C 107.054688 -124.84375 107.078125 -124.507812 106.921875 -124.21875 C 106.765625 -123.9375 106.554688 -123.640625 106.296875 -123.328125 C 103.972656 -121.203125 101.601562 -119.03125 99.1875 -116.8125 C 96.863281 -114.601562 94.519531 -112.421875 92.15625 -110.265625 C 86.09375 -104.578125 80.03125 -98.890625 73.96875 -93.203125 C 62.070312 -82.128906 50.191406 -71.035156 38.328125 -59.921875 C 32.253906 -54.347656 26.535156 -48.398438 21.171875 -42.078125 C 19.265625 -39.859375 17.476562 -37.515625 15.8125 -35.046875 C 14.695312 -33.410156 13.796875 -31.644531 13.109375 -29.75 C 11.898438 -26.582031 12.644531 -23.953125 15.34375 -21.859375 C 17.125 -20.585938 18.992188 -19.476562 20.953125 -18.53125 C 23.847656 -17.09375 26.816406 -15.863281 29.859375 -14.84375 C 32.910156 -13.820312 35.972656 -12.882812 39.046875 -12.03125 C 49.421875 -8.976562 59.796875 -5.972656 70.171875 -3.015625 C 71.066406 -2.753906 71.957031 -2.492188 72.84375 -2.234375 C 73.019531 -2.179688 73.238281 -2.125 73.5 -2.0625 C 74.1875 -1.863281 74.84375 -1.617188 75.46875 -1.328125 C 76.101562 -1.046875 76.679688 -0.617188 77.203125 -0.046875 C 77.515625 0.328125 77.609375 0.75 77.484375 1.21875 C 77.359375 1.695312 77.109375 2.023438 76.734375 2.203125 C 75.410156 2.710938 74.144531 2.679688 72.9375 2.109375 C 71.300781 1.304688 69.59375 0.679688 67.8125 0.234375 C 66.03125 -0.210938 64.234375 -0.617188 62.421875 -0.984375 C 60.835938 -1.304688 59.253906 -1.695312 57.671875 -2.15625 C 55.203125 -2.789062 52.734375 -3.394531 50.265625 -3.96875 C 43.617188 -5.601562 37.035156 -7.425781 30.515625 -9.4375 C 25.085938 -11.070312 19.785156 -13.070312 14.609375 -15.4375 C 13.148438 -16.125 12.234375 -16.320312 11.859375 -16.03125 C 11.484375 -15.75 11.296875 -14.785156 11.296875 -13.140625 C 11.234375 -12.191406 11.203125 -11.273438 11.203125 -10.390625 C 11.265625 -10.015625 11.296875 -9.640625 11.296875 -9.265625 C 11.296875 -4.265625 11.296875 0.734375 11.296875 5.734375 C 11.296875 18.753906 11.265625 31.742188 11.203125 44.703125 C 11.203125 47.804688 11.070312 50.910156 10.8125 54.015625 C 10.757812 55.453125 10.691406 56.929688 10.609375 58.453125 C 10.609375 59.023438 10.515625 59.546875 10.328125 60.015625 C 10.140625 60.492188 9.757812 60.863281 9.1875 61.125 C 8.0625 61.613281 7.085938 61.632812 6.265625 61.1875 C 5.453125 60.738281 4.972656 59.957031 4.828125 58.84375 C 4.765625 57.832031 4.707031 56.851562 4.65625 55.90625 C 4.34375 51.21875 4.15625 46.503906 4.09375 41.765625 C 4.09375 24.441406 4.09375 7.113281 4.09375 -10.21875 C 4.09375 -16.59375 4.09375 -22.941406 4.09375 -29.265625 C 4.09375 -29.265625 4.125 -29.265625 4.1875 -29.265625 C 4.1875 -35.648438 4.1875 -42.03125 4.1875 -48.40625 C 4.125 -67.3125 4.125 -86.25 4.1875 -105.21875 C 4.1875 -109.476562 4.3125 -113.691406 4.5625 -117.859375 C 4.625 -119.609375 5.53125 -120.554688 7.28125 -120.703125 C 9.320312 -120.953125 10.472656 -120.085938 10.734375 -118.109375 C 11.046875 -115.578125 11.203125 -113.019531 11.203125 -110.4375 C 11.203125 -98.363281 11.203125 -86.296875 11.203125 -74.234375 C 11.265625 -65.378906 11.296875 -56.554688 11.296875 -47.765625 C 11.296875 -46.117188 11.378906 -44.476562 11.546875 -42.84375 C 11.546875 -42.757812 11.609375 -42.6875 11.734375 -42.625 C 11.867188 -42.570312 12 -42.515625 12.125 -42.453125 C 12.257812 -42.398438 12.359375 -42.398438 12.421875 -42.453125 C 12.617188 -42.453125 12.78125 -42.515625 12.90625 -42.640625 C 13.039062 -42.773438 13.164062 -42.898438 13.28125 -43.015625 C 17.5 -48.015625 21.9375 -52.769531 26.59375 -57.28125 C 31.25 -61.800781 35.945312 -66.269531 40.6875 -70.6875 C 41.007812 -70.945312 41.328125 -71.238281 41.640625 -71.5625 C 55.804688 -84.78125 70.03125 -97.925781 84.3125 -111 C 87.476562 -113.925781 90.613281 -116.84375 93.71875 -119.75 C 95.78125 -121.582031 97.863281 -123.378906 99.96875 -125.140625 C 101.488281 -126.347656 103.222656 -126.789062 105.171875 -126.46875 Z M 105.171875 -126.46875 "/></g></g></g><g fill="#000000" fill-opacity="1"><g transform="translate(166.080732, 202.319665)"><g><path d="M 27.5 -20.640625 C 28.050781 -21.765625 28.425781 -22.285156 28.625 -22.203125 C 28.820312 -22.117188 28.867188 -21.664062 28.765625 -20.84375 C 28.671875 -20.019531 28.492188 -19.09375 28.234375 -18.0625 C 27.859375 -16.476562 27.210938 -14.644531 26.296875 -12.5625 C 25.378906 -10.476562 24.359375 -8.585938 23.234375 -6.890625 C 21.566406 -4.535156 19.503906 -2.757812 17.046875 -1.5625 C 14.585938 -0.375 12.359375 -0.0820312 10.359375 -0.6875 C 8.367188 -1.289062 7.210938 -3.175781 6.890625 -6.34375 C 6.835938 -8.976562 7.070312 -11.878906 7.59375 -15.046875 C 7.757812 -16.367188 7.941406 -17.660156 8.140625 -18.921875 C 8.140625 -19.378906 8.023438 -19.726562 7.796875 -19.96875 C 7.566406 -20.21875 7.265625 -20.316406 6.890625 -20.265625 C 6.640625 -20.265625 6.351562 -20.265625 6.03125 -20.265625 C 4.445312 -20.003906 2.835938 -20.03125 1.203125 -20.34375 C -0.742188 -20.914062 -1.875 -21.882812 -2.1875 -23.25 C -2.507812 -24.613281 -2.484375 -26.40625 -2.109375 -28.625 C -1.910156 -30.207031 -1.320312 -31.390625 -0.34375 -32.171875 C 0.632812 -32.960938 1.785156 -33.289062 3.109375 -33.15625 C 4.941406 -32.976562 5.828125 -32.269531 5.765625 -31.03125 C 5.710938 -29.800781 5.367188 -28.484375 4.734375 -27.078125 C 4.160156 -25.890625 3.859375 -24.898438 3.828125 -24.109375 C 3.804688 -23.328125 4.484375 -23.050781 5.859375 -23.28125 C 6.179688 -23.363281 6.523438 -23.460938 6.890625 -23.578125 C 7.410156 -23.773438 8 -23.953125 8.65625 -24.109375 C 9.320312 -24.273438 10.1875 -24.3125 11.25 -24.21875 C 12.507812 -24.164062 13.347656 -23.582031 13.765625 -22.46875 C 14.179688 -21.363281 14.359375 -19.976562 14.296875 -18.3125 C 14.242188 -16.644531 14.09375 -14.953125 13.84375 -13.234375 C 13.519531 -11.078125 13.359375 -9.226562 13.359375 -7.6875 C 13.359375 -6.15625 13.804688 -5.257812 14.703125 -5 C 15.878906 -4.6875 17.640625 -5.753906 19.984375 -8.203125 C 22.328125 -10.660156 24.832031 -14.804688 27.5 -20.640625 Z M 27.5 -20.640625 "/></g></g></g><g fill="#000000" fill-opacity="1"><g transform="translate(192.456981, 202.319665)"><g><path d="M 22.359375 -17.5 C 21.472656 -15.664062 19.957031 -13.625 17.8125 -11.375 C 15.675781 -9.132812 13.25 -7.710938 10.53125 -7.109375 C 7.820312 -6.503906 5.234375 -7.441406 2.765625 -9.921875 C 1.816406 -11.003906 1.117188 -12.253906 0.671875 -13.671875 C 0.222656 -15.097656 0.0546875 -16.503906 0.171875 -17.890625 C 0.171875 -18.265625 0.171875 -18.738281 0.171875 -19.3125 C 0.171875 -20.78125 0.234375 -22.472656 0.359375 -24.390625 C 0.492188 -26.316406 0.78125 -28.054688 1.21875 -29.609375 C 1.664062 -31.160156 2.363281 -32.097656 3.3125 -32.421875 C 6.050781 -33.109375 7.535156 -32.160156 7.765625 -29.578125 C 7.765625 -28.742188 7.734375 -27.910156 7.671875 -27.078125 C 7.617188 -26.640625 7.59375 -26.234375 7.59375 -25.859375 C 7.53125 -24.648438 7.472656 -23.445312 7.421875 -22.25 C 7.421875 -21.289062 7.375 -20.335938 7.28125 -19.390625 C 7.226562 -15.222656 8.160156 -12.742188 10.078125 -11.953125 C 12.003906 -11.171875 14.203125 -12.015625 16.671875 -14.484375 C 19.148438 -16.953125 20.769531 -19.003906 21.53125 -20.640625 C 22.289062 -22.285156 22.84375 -22.632812 23.1875 -21.6875 C 23.53125 -20.738281 23.253906 -19.34375 22.359375 -17.5 Z M 7.203125 -41.296875 C 6.828125 -40.984375 6.375 -40.78125 5.84375 -40.6875 C 5.3125 -40.601562 4.84375 -40.648438 4.4375 -40.828125 C 4.125 -41.078125 3.921875 -41.410156 3.828125 -41.828125 C 3.742188 -42.242188 3.703125 -42.742188 3.703125 -43.328125 C 3.703125 -43.441406 3.734375 -43.554688 3.796875 -43.671875 C 3.847656 -44.179688 3.976562 -44.695312 4.1875 -45.21875 C 4.757812 -46.59375 5.953125 -47.222656 7.765625 -47.109375 C 8.390625 -47.023438 8.878906 -46.765625 9.234375 -46.328125 C 9.597656 -45.898438 9.679688 -45.398438 9.484375 -44.828125 C 9.054688 -43.421875 8.296875 -42.242188 7.203125 -41.296875 Z M 7.203125 -41.296875 "/></g></g></g><g fill="#000000" fill-opacity="1"><g transform="translate(213.618318, 202.319665)"><g><path d="M 26.171875 -23.53125 C 26.171875 -22.875 24.773438 -21.703125 21.984375 -20.015625 C 19.191406 -18.335938 17.132812 -17.070312 15.8125 -16.21875 C 14.5 -15.375 13.84375 -14.851562 13.84375 -14.65625 C 14.09375 -14.082031 14.363281 -13.117188 14.65625 -11.765625 C 14.945312 -10.410156 15.054688 -8.941406 14.984375 -7.359375 C 14.910156 -5.785156 14.398438 -4.378906 13.453125 -3.140625 C 12.503906 -1.910156 10.921875 -1.164062 8.703125 -0.90625 C 6.492188 -0.726562 4.519531 -1.0625 2.78125 -1.90625 C 1.039062 -2.757812 -0.046875 -3.988281 -0.484375 -5.59375 C -0.929688 -7.207031 -0.394531 -9.09375 1.125 -11.25 C 2.125 -12.457031 3.328125 -13.503906 4.734375 -14.390625 C 5.222656 -14.710938 5.726562 -15.0625 6.25 -15.4375 C 4.550781 -17.269531 2.941406 -19.148438 1.421875 -21.078125 C -0.0976562 -23.003906 -1.078125 -24.726562 -1.515625 -26.25 C -1.972656 -28 -1.675781 -29.648438 -0.625 -31.203125 C 0.425781 -32.753906 2.242188 -33.660156 4.828125 -33.921875 C 6.085938 -34.035156 7.269531 -33.96875 8.375 -33.71875 C 9.488281 -33.476562 10.519531 -32.941406 11.46875 -32.109375 C 11.664062 -31.910156 11.804688 -31.6875 11.890625 -31.4375 C 11.984375 -31.195312 11.941406 -30.890625 11.765625 -30.515625 C 11.453125 -29.941406 10.976562 -29.65625 10.34375 -29.65625 C 9.882812 -29.65625 9.441406 -29.710938 9.015625 -29.828125 C 8.546875 -30.023438 8.128906 -30.210938 7.765625 -30.390625 C 7.503906 -30.535156 7.257812 -30.664062 7.03125 -30.78125 C 6.195312 -31.09375 5.554688 -31.046875 5.109375 -30.640625 C 4.660156 -30.242188 4.4375 -29.628906 4.4375 -28.796875 C 4.5 -27.328125 5.101562 -25.757812 6.25 -24.09375 C 7.394531 -22.425781 8.53125 -20.890625 9.65625 -19.484375 C 10.113281 -18.992188 10.5 -18.519531 10.8125 -18.0625 C 11.132812 -17.75 11.96875 -17.800781 13.3125 -18.21875 C 14.664062 -18.632812 17.144531 -19.789062 20.75 -21.6875 C 24.363281 -23.582031 26.171875 -24.195312 26.171875 -23.53125 Z M 6.890625 -4.140625 C 7.722656 -4.191406 8.269531 -4.648438 8.53125 -5.515625 C 8.789062 -6.378906 8.882812 -7.328125 8.8125 -8.359375 C 8.738281 -9.398438 8.675781 -10.175781 8.625 -10.6875 C 8.507812 -11.007812 8.304688 -11.210938 8.015625 -11.296875 C 7.734375 -11.378906 7.460938 -11.363281 7.203125 -11.25 C 6.253906 -10.5 5.554688 -9.550781 5.109375 -8.40625 C 4.660156 -7.257812 4.695312 -6.253906 5.21875 -5.390625 C 5.382812 -5.078125 5.613281 -4.800781 5.90625 -4.5625 C 6.195312 -4.332031 6.523438 -4.191406 6.890625 -4.140625 Z M 6.890625 -4.140625 "/></g></g></g><g fill="#000000" fill-opacity="1"><g transform="translate(236.848381, 202.319665)"><g><path d="M 31.640625 -20.734375 C 33.222656 -22.253906 33.90625 -22.632812 33.6875 -21.875 C 33.46875 -21.113281 32.597656 -19.734375 31.078125 -17.734375 C 29.554688 -15.742188 27.660156 -13.582031 25.390625 -11.25 C 23.117188 -8.925781 20.71875 -6.90625 18.1875 -5.1875 C 15.65625 -3.476562 13.253906 -2.550781 10.984375 -2.40625 C 8.203125 -2.40625 5.96875 -3.234375 4.28125 -4.890625 C 2.601562 -6.546875 1.40625 -8.726562 0.6875 -11.4375 C -0.03125 -14.15625 -0.332031 -17.097656 -0.21875 -20.265625 C -0.0703125 -23.796875 0.0546875 -27.328125 0.171875 -30.859375 C 0.234375 -32.640625 0.289062 -34.378906 0.34375 -36.078125 C 0.488281 -38.921875 0.585938 -41.765625 0.640625 -44.609375 C 0.703125 -45.503906 0.5625 -46.253906 0.21875 -46.859375 C -0.125 -47.460938 -0.742188 -47.789062 -1.640625 -47.84375 C -2.640625 -47.90625 -3.90625 -47.9375 -5.4375 -47.9375 C -6.757812 -47.9375 -7.894531 -47.9375 -8.84375 -47.9375 C -10.15625 -48.082031 -11.035156 -48.429688 -11.484375 -48.984375 C -11.929688 -49.546875 -11.582031 -50.113281 -10.4375 -50.6875 C -9.625 -51.007812 -8.648438 -51.179688 -7.515625 -51.203125 C -6.378906 -51.234375 -5.269531 -51.222656 -4.1875 -51.171875 C -3.488281 -51.109375 -2.882812 -51.078125 -2.375 -51.078125 C -0.675781 -51.078125 0.359375 -51.34375 0.734375 -51.875 C 1.109375 -52.40625 1.335938 -53.460938 1.421875 -55.046875 C 1.535156 -56.710938 1.625 -58.394531 1.6875 -60.09375 C 1.738281 -60.976562 1.804688 -61.867188 1.890625 -62.765625 C 1.890625 -64.085938 2.238281 -65.28125 2.9375 -66.34375 C 3.675781 -67.34375 4.625 -67.726562 5.78125 -67.5 C 6.78125 -67.238281 7.335938 -66.609375 7.453125 -65.609375 C 7.546875 -63.941406 7.59375 -62.257812 7.59375 -60.5625 C 7.644531 -59.613281 7.644531 -58.664062 7.59375 -57.71875 C 7.59375 -56.707031 7.617188 -55.660156 7.671875 -54.578125 C 7.617188 -53.078125 7.789062 -52.132812 8.1875 -51.75 C 8.59375 -51.363281 9.585938 -51.171875 11.171875 -51.171875 C 13.753906 -51.171875 16.3125 -51.171875 18.84375 -51.171875 C 19.988281 -51.171875 23.40625 -51.25 29.09375 -51.40625 C 34.78125 -51.5625 37.847656 -51.097656 38.296875 -50.015625 C 38.742188 -48.941406 35.144531 -48.320312 27.5 -48.15625 C 22.875 -47.894531 19.296875 -47.765625 16.765625 -47.765625 C 15.066406 -47.816406 13.546875 -47.84375 12.203125 -47.84375 C 9.929688 -47.84375 8.53125 -47.445312 8 -46.65625 C 7.46875 -45.875 7.226562 -44.289062 7.28125 -41.90625 C 7.226562 -39.863281 7.128906 -37.390625 6.984375 -34.484375 C 6.609375 -28.535156 6.421875 -22.472656 6.421875 -16.296875 C 6.566406 -12.046875 7.328125 -9.285156 8.703125 -8.015625 C 10.085938 -6.753906 11.882812 -6.515625 14.09375 -7.296875 C 16.3125 -8.085938 18.703125 -9.492188 21.265625 -11.515625 C 23.835938 -13.546875 26.390625 -15.726562 28.921875 -18.0625 C 29.472656 -18.78125 30.132812 -19.457031 30.90625 -20.09375 C 31.164062 -20.320312 31.410156 -20.535156 31.640625 -20.734375 Z M 31.640625 -20.734375 "/></g></g></g><g fill="#000000" fill-opacity="1"><g transform="translate(267.922361, 202.319665)"><g><path d="M 48.671875 -21.765625 C 49.671875 -21.710938 49.835938 -21.210938 49.171875 -20.265625 C 48.515625 -19.316406 47.394531 -18.113281 45.8125 -16.65625 C 44.238281 -15.207031 42.53125 -13.691406 40.6875 -12.109375 C 38.21875 -10.015625 36.222656 -8.207031 34.703125 -6.6875 C 33.003906 -5.25 31.628906 -3.25 30.578125 -0.6875 C 29.535156 1.863281 29.015625 4.21875 29.015625 6.375 C 29.015625 7.53125 29.015625 8.894531 29.015625 10.46875 C 29.066406 13.6875 29.0625 17.554688 29 22.078125 C 28.945312 26.609375 28.695312 31.285156 28.25 36.109375 C 27.8125 40.941406 27.007812 45.476562 25.84375 49.71875 C 24.675781 53.957031 23.015625 57.421875 20.859375 60.109375 C 18.703125 62.796875 15.957031 64.269531 12.625 64.53125 C 6.21875 64.695312 1.820312 62.039062 -0.5625 56.5625 C -2.394531 51.925781 -3.007812 47.179688 -2.40625 42.328125 C -1.8125 37.472656 -0.457031 32.734375 1.65625 28.109375 C 3.769531 23.484375 6.15625 19.226562 8.8125 15.34375 C 11.46875 11.46875 13.96875 8.210938 16.3125 5.578125 C 18.65625 2.953125 20.332031 1.191406 21.34375 0.296875 C 21.769531 -1.140625 22.019531 -2.804688 22.09375 -4.703125 C 22.164062 -6.597656 22.171875 -8.4375 22.109375 -10.21875 C 22.023438 -10.789062 21.984375 -11.289062 21.984375 -11.71875 C 20.722656 -9.769531 19.414062 -8.398438 18.0625 -7.609375 C 16.707031 -6.816406 15.347656 -6.382812 13.984375 -6.3125 C 12.617188 -6.238281 11.332031 -6.273438 10.125 -6.421875 C 10.007812 -6.421875 9.894531 -6.421875 9.78125 -6.421875 C 7 -6.796875 4.800781 -8.101562 3.1875 -10.34375 C 1.582031 -12.582031 0.539062 -15.140625 0.0625 -18.015625 C -0.40625 -20.890625 -0.28125 -23.46875 0.4375 -25.75 C 1.15625 -28.039062 2.460938 -29.375 4.359375 -29.75 C 5.128906 -29.945312 5.988281 -30.046875 6.9375 -30.046875 C 7.882812 -30.046875 8.675781 -29.914062 9.3125 -29.65625 C 9.945312 -29.394531 10.160156 -28.921875 9.953125 -28.234375 C 9.378906 -25.878906 9.050781 -23.328125 8.96875 -20.578125 C 8.882812 -17.835938 9.117188 -15.453125 9.671875 -13.421875 C 10.234375 -11.398438 11.238281 -10.3125 12.6875 -10.15625 C 14.144531 -10 16.082031 -11.3125 18.5 -14.09375 C 19.644531 -15.5625 20.429688 -17.0625 20.859375 -18.59375 C 21.296875 -20.132812 21.640625 -21.796875 21.890625 -23.578125 C 21.953125 -24.210938 22.054688 -24.84375 22.203125 -25.46875 C 22.253906 -26.101562 22.335938 -26.738281 22.453125 -27.375 C 22.546875 -28.207031 22.648438 -29.023438 22.765625 -29.828125 C 23.078125 -31.148438 23.8125 -32.066406 24.96875 -32.578125 C 26.132812 -33.097656 27.394531 -33.046875 28.75 -32.421875 C 29.4375 -32.015625 29.835938 -31.4375 29.953125 -30.6875 C 30.097656 -29.226562 30.171875 -27.78125 30.171875 -26.34375 C 30.085938 -21.226562 30.046875 -14.929688 30.046875 -7.453125 C 30.128906 -7.515625 30.757812 -8.046875 31.9375 -9.046875 C 33.457031 -10.460938 35.390625 -12.144531 37.734375 -14.09375 C 40.078125 -16.050781 42.289062 -17.804688 44.375 -19.359375 C 46.457031 -20.910156 47.890625 -21.710938 48.671875 -21.765625 Z M 20.5625 22.03125 C 20.5625 21.34375 20.601562 20.625 20.6875 19.875 C 20.75 17.144531 20.835938 14.382812 20.953125 11.59375 C 20.953125 11.476562 20.90625 11.328125 20.8125 11.140625 C 20.726562 10.953125 20.613281 10.816406 20.46875 10.734375 C 20.15625 10.503906 19.890625 10.46875 19.671875 10.625 C 19.460938 10.78125 19.253906 10.945312 19.046875 11.125 C 16.410156 14.539062 13.921875 18.410156 11.578125 22.734375 C 9.234375 27.054688 7.398438 31.5625 6.078125 36.25 C 4.753906 40.9375 4.207031 45.519531 4.4375 50 C 4.632812 52.789062 5.523438 55.347656 7.109375 57.671875 C 9.003906 60.285156 10.660156 61.226562 12.078125 60.5 C 13.503906 59.769531 14.707031 57.96875 15.6875 55.09375 C 16.664062 52.21875 17.46875 48.832031 18.09375 44.9375 C 18.726562 41.039062 19.21875 37.234375 19.5625 33.515625 C 19.914062 29.796875 20.191406 26.695312 20.390625 24.21875 C 20.441406 23.382812 20.5 22.65625 20.5625 22.03125 Z M 20.5625 22.03125 "/></g></g></g><g fill="#000000" fill-opacity="1"><g transform="translate(119.736756, 248.643806)"><g><path d="M 16.21875 0 L 14.265625 -4.546875 L 4.9375 -4.546875 L 2.984375 0 L 0.265625 0 L 8.46875 -18.421875 L 10.71875 -18.421875 L 18.921875 0 Z M 5.859375 -6.6875 L 13.34375 -6.6875 L 9.609375 -15.40625 Z M 5.859375 -6.6875 "/></g></g></g><g fill="#000000" fill-opacity="1"><g transform="translate(145.565664, 248.643806)"><g><path d="M 2.140625 -18.421875 L 8.59375 -18.421875 C 11.570312 -18.421875 13.878906 -17.617188 15.515625 -16.015625 C 17.148438 -14.410156 17.96875 -12.144531 17.96875 -9.21875 C 17.96875 -6.289062 17.148438 -4.019531 15.515625 -2.40625 C 13.878906 -0.800781 11.570312 0 8.59375 0 L 2.140625 0 Z M 8.4375 -2.25 C 12.96875 -2.25 15.234375 -4.570312 15.234375 -9.21875 C 15.234375 -13.851562 12.96875 -16.171875 8.4375 -16.171875 L 4.828125 -16.171875 L 4.828125 -2.25 Z M 8.4375 -2.25 "/></g></g></g><g fill="#000000" fill-opacity="1"><g transform="translate(171.707889, 248.643806)"><g><path d="M 16.21875 0 L 14.265625 -4.546875 L 4.9375 -4.546875 L 2.984375 0 L 0.265625 0 L 8.46875 -18.421875 L 10.71875 -18.421875 L 18.921875 0 Z M 5.859375 -6.6875 L 13.34375 -6.6875 L 9.609375 -15.40625 Z M 5.859375 -6.6875 "/></g></g></g><g fill="#000000" fill-opacity="1"><g transform="translate(197.536797, 248.643806)"><g><path d="M 17.65625 -18.421875 L 19.796875 -18.421875 L 19.796875 0 L 17.375 0 L 17.40625 -13.328125 L 11.90625 -2.953125 L 10.078125 -2.953125 L 4.578125 -13.1875 L 4.59375 0 L 2.171875 0 L 2.171875 -18.421875 L 4.34375 -18.421875 L 11.03125 -5.671875 Z M 17.65625 -18.421875 "/></g></g></g><g fill="#000000" fill-opacity="1"><g transform="translate(226.159589, 248.643806)"><g><path d="M 8.171875 0.203125 C 6.742188 0.203125 5.429688 0.015625 4.234375 -0.359375 C 3.046875 -0.742188 2.023438 -1.3125 1.171875 -2.0625 L 2.140625 -4.046875 C 3.046875 -3.316406 3.984375 -2.789062 4.953125 -2.46875 C 5.921875 -2.144531 7.003906 -1.984375 8.203125 -1.984375 C 9.578125 -1.984375 10.640625 -2.238281 11.390625 -2.75 C 12.140625 -3.269531 12.515625 -4 12.515625 -4.9375 C 12.515625 -5.738281 12.164062 -6.332031 11.46875 -6.71875 C 10.769531 -7.113281 9.65625 -7.488281 8.125 -7.84375 C 6.664062 -8.15625 5.460938 -8.507812 4.515625 -8.90625 C 3.578125 -9.3125 2.84375 -9.859375 2.3125 -10.546875 C 1.78125 -11.234375 1.515625 -12.109375 1.515625 -13.171875 C 1.515625 -14.242188 1.796875 -15.191406 2.359375 -16.015625 C 2.929688 -16.835938 3.738281 -17.476562 4.78125 -17.9375 C 5.820312 -18.394531 7.03125 -18.625 8.40625 -18.625 C 9.695312 -18.625 10.910156 -18.425781 12.046875 -18.03125 C 13.191406 -17.644531 14.128906 -17.085938 14.859375 -16.359375 L 13.921875 -14.375 C 13.066406 -15.0625 12.191406 -15.578125 11.296875 -15.921875 C 10.398438 -16.265625 9.445312 -16.4375 8.4375 -16.4375 C 7.113281 -16.4375 6.070312 -16.160156 5.3125 -15.609375 C 4.5625 -15.054688 4.1875 -14.296875 4.1875 -13.328125 C 4.1875 -12.484375 4.515625 -11.847656 5.171875 -11.421875 C 5.835938 -11.003906 6.898438 -10.617188 8.359375 -10.265625 C 9.890625 -9.921875 11.128906 -9.5625 12.078125 -9.1875 C 13.023438 -8.8125 13.78125 -8.296875 14.34375 -7.640625 C 14.914062 -6.984375 15.203125 -6.132812 15.203125 -5.09375 C 15.203125 -4.03125 14.914062 -3.097656 14.34375 -2.296875 C 13.78125 -1.492188 12.972656 -0.875 11.921875 -0.4375 C 10.867188 -0.0078125 9.617188 0.203125 8.171875 0.203125 Z M 8.171875 0.203125 "/></g></g></g></svg>